<?xml version="1.0" encoding="UTF-8" standalone="no"?>
<svg
   xmlns:dc="http://purl.org/dc/elements/1.1/"
   xmlns:cc="http://creativecommons.org/ns#"
   xmlns:rdf="http://www.w3.org/1999/02/22-rdf-syntax-ns#"
   xmlns:svg="http://www.w3.org/2000/svg"
   xmlns="http://www.w3.org/2000/svg"
   viewBox="0 0 847.81335 295.94666"
   height="295.94666"
   width="847.81335"
   xml:space="preserve"
   id="svg2"
   version="1.1"><metadata
     id="metadata8"><rdf:RDF><cc:Work
         rdf:about=""><dc:format>image/svg+xml</dc:format><dc:type
           rdf:resource="http://purl.org/dc/dcmitype/StillImage" /></cc:Work></rdf:RDF></metadata><defs
     id="defs6"><clipPath
       id="clipPath20"
       clipPathUnits="userSpaceOnUse"><path
         id="path18"
         d="M 0,2219.61 V 0 h 6358.65 v 2219.61 z" /></clipPath></defs><g
     transform="matrix(1.3333333,0,0,-1.3333333,0,295.94667)"
     id="g10"><g
       transform="scale(0.1)"
       id="g12"><g
         id="g14"><g
           clip-path="url(#clipPath20)"
           id="g16"><path
             id="path22"
             style="fill:#ffffff;fill-opacity:1;fill-rule:nonzero;stroke:none"
             d="m 260.641,2219.61 c 0,-118.35 94.16,-210.29 234.476,-210.29 137.481,0 230.656,88.36 234.235,210.29 z m 45.91,-391.58 V 527.66 C 306.551,399.559 246.078,339.09 151.793,339.09 92.8047,339.09 40.2305,354.02 0,379.82 V 63.1484 C 58.3711,46.7383 125.137,39.3281 192.891,39.3281 c 314.199,0 490.675,191.0429 490.675,490.8009 V 1828.03 H 306.551" /><path
             id="path24"
             style="fill:#ffffff;fill-opacity:1;fill-rule:nonzero;stroke:none"
             d="m 1694.02,938.57 v 132.94 h -258.63 c -176.45,0 -232.04,-65.27 -232.04,-152.28 0,-94.269 79.76,-157.109 212.71,-157.109 125.68,0 234.45,58 277.96,176.449 z m 377.07,331.14 V 527.648 h -352.9 v 161.961 c -70.09,-118.449 -205.45,-181.3 -396.4,-181.3 -304.56,0 -485.845,169.211 -485.845,393.992 0,229.639 161.946,389.169 558.355,389.169 h 299.72 c 0,161.94 -96.68,256.21 -299.72,256.21 -137.78,0 -280.39,-45.92 -374.66,-120.86 L 884.285,1690.3 c 142.605,101.51 352.895,157.1 560.775,157.1 396.41,0 626.03,-183.7 626.03,-577.69" /><path
             id="path26"
             style="fill:#ffffff;fill-opacity:1;fill-rule:nonzero;stroke:none"
             d="m 3083.4,1847.4 v -348.06 c -31.43,2.42 -55.6,4.83 -84.6,4.83 -207.87,0 -345.64,-113.6 -345.64,-362.57 V 527.648 H 2276.08 V 1828.07 h 360.15 v -171.61 c 91.85,125.68 246.54,190.94 447.17,190.94" /><path
             id="path28"
             style="fill:#ffffff;fill-opacity:1;fill-rule:nonzero;stroke:none"
             d="M 4644.82,1828.07 4096.13,527.648 H 3706.98 L 3160.7,1828.07 h 389.16 l 360.16,-884.66 372.24,884.66 h 362.56" /><path
             id="path30"
             style="fill:#ffffff;fill-opacity:1;fill-rule:nonzero;stroke:none"
             d="m 4753.5,2219.61 c 0,-118.35 94.28,-210.29 234.47,-210.29 137.49,0 230.79,88.36 234.36,210.29 z m 45.91,-391.58 V 527.66 h 377.14 v 1300.37 h -377.14" /><path
             id="path32"
             style="fill:#ffffff;fill-opacity:1;fill-rule:nonzero;stroke:none"
             d="m 5981.14,1562.2 c 118.35,0 246.44,-24.18 374.55,-96.75 l 2.96,6.3 v 316.54 c -112.92,38.26 -250.16,59.11 -377.51,59.11 -379.61,0 -601.88,-174 -601.88,-420.58 0,-519.672 785.51,-302.1 785.51,-514.859 0,-72.441 -65.28,-118.481 -239.29,-118.481 -159.57,0 -336.04,50.848 -452.05,125.758 L 5347.8,648.48 c 120.82,-79.718 343.2,-140.191 563.11,-140.191 191.42,0 343.21,41.59 447.74,112.422 v 595.209 c -230.53,129.08 -619.27,68.98 -619.27,225.47 0,67.63 72.44,120.81 241.76,120.81" /><path
             id="path34"
             style="fill:#ffffff;fill-opacity:1;fill-rule:nonzero;stroke:none"
             d="M 2463.24,102.27 2404.07,236.691 2344.9,102.27 Z m 13.72,-31.3481 H 2331.19 L 2301.01,2.35156 h -40.36 L 2384.87,276.66 h 38.8 L 2548.28,2.35156 h -41.14 l -30.18,68.57034" /><path
             id="path36"
             style="fill:#ffffff;fill-opacity:1;fill-rule:nonzero;stroke:none"
             d="m 2628.14,2.35156 h 39.1914 v 274.309 H 2628.14 Z" /><path
             id="path38"
             style="fill:#ffffff;fill-opacity:1;fill-rule:nonzero;stroke:none"
             d="m 2970.17,228.059 v -18.008 h 60.35 v -30.973 h -59.57 V 2.35156 h -37.61 V 179.078 h -35.28 v 30.973 h 35.28 v 18.398 c 0,40.371 24.29,67.02 68.58,67.02 16.06,0 31.73,-3.918 42.31,-12.149 l -11.36,-28.609 c -7.83,5.879 -18.03,9.801 -29,9.801 -22.34,0 -33.7,-12.543 -33.7,-36.453" /><path
             id="path40"
             style="fill:#ffffff;fill-opacity:1;fill-rule:nonzero;stroke:none"
             d="m 3260.9,106.191 c 0,44.289 -29.79,72.887 -69.75,72.887 -39.98,0 -70.15,-28.598 -70.15,-72.887 0,-44.2808 30.17,-73.2808 70.15,-73.2808 39.96,0 69.75,29 69.75,73.2808 z m -177.92,0 c 0,61.918 45.86,105.809 108.17,105.809 62.3,0 107.76,-43.891 107.76,-105.809 C 3298.91,44.2695 3253.45,0 3191.15,0 3128.84,0 3082.98,44.2695 3082.98,106.191" /><path
             id="path42"
             style="fill:#ffffff;fill-opacity:1;fill-rule:nonzero;stroke:none"
             d="m 3501.82,212 v -36.449 c -3.12,0.39 -5.88,0.39 -8.62,0.39 -40.36,0 -65.44,-24.679 -65.44,-70.14 V 2.35156 h -37.62 V 210.051 h 36.06 V 175.16 c 13.32,24.301 39.19,36.84 75.62,36.84" /><path
             id="path44"
             style="fill:#ffffff;fill-opacity:1;fill-rule:nonzero;stroke:none"
             d="m 3846.2,212 v -36.449 c -3.14,0.39 -5.88,0.39 -8.63,0.39 -40.36,0 -65.43,-24.679 -65.43,-70.14 V 2.35156 h -37.62 V 210.051 h 36.05 V 175.16 c 13.32,24.301 39.18,36.84 75.63,36.84" /><path
             id="path46"
             style="fill:#ffffff;fill-opacity:1;fill-rule:nonzero;stroke:none"
             d="m 3948.03,120.691 h 133.24 c -3.92,34.879 -30.17,59.571 -66.62,59.571 -36.05,0 -62.7,-24.301 -66.62,-59.571 z m 168.51,-27.0426 h -168.51 c 4.71,-36.4492 34.1,-60.7382 75.24,-60.7382 24.29,0 44.68,8.2304 59.96,25.0781 L 4104,33.6992 C 4085.18,11.75 4056.58,0 4022.1,0 c -67.02,0 -111.69,44.2695 -111.69,106.191 0,61.52 44.28,105.809 104.24,105.809 59.96,0 102.67,-43.109 102.67,-106.98 0,-3.141 -0.39,-7.8403 -0.78,-11.3716" /><path
             id="path48"
             style="fill:#ffffff;fill-opacity:1;fill-rule:nonzero;stroke:none"
             d="m 4182.31,24.2891 15.67,29.789 c 17.63,-12.5468 45.85,-21.5586 72.9,-21.5586 34.87,0 49.37,10.5821 49.37,28.2188 0,46.6327 -131.28,6.2734 -131.28,88.9527 0,37.231 33.31,62.309 86.6,62.309 27.04,0 57.61,-7.051 75.64,-18.809 l -16.07,-29.781 c -18.82,12.141 -39.58,16.449 -59.96,16.449 -32.91,0 -48.98,-12.148 -48.98,-28.597 0,-48.992 131.67,-9.024 131.67,-89.7425 C 4357.87,23.8984 4323.39,0 4268.13,0 c -34.48,0 -68.58,10.5781 -85.82,24.2891" /><path
             id="path50"
             style="fill:#ffffff;fill-opacity:1;fill-rule:nonzero;stroke:none"
             d="M 4560.8,14.5 C 4549.43,4.69141 4532.19,0 4515.34,0 4473.4,0 4449.5,23.1211 4449.5,65.0508 V 179.078 h -35.27 v 30.973 h 35.27 v 45.437 h 37.63 v -45.437 h 59.56 v -30.973 h -59.56 V 66.6211 c 0,-22.3516 11.75,-34.8828 32.52,-34.8828 10.97,0 21.56,3.5312 29.39,9.793 L 4560.8,14.5" /><path
             id="path52"
             style="fill:#ffffff;fill-opacity:1;fill-rule:nonzero;stroke:none"
             d="m 4772.35,65.8281 v 29 h -58 c -37.22,0 -47.8,-14.5 -47.8,-32.1289 0,-20.7695 17.24,-33.7109 45.84,-33.7109 28.21,0 50.56,12.9414 59.96,36.8398 z m 37.62,61.9219 V 2.35156 h -35.66 V 29.7813 C 4761.77,10.9688 4738.65,0 4706.13,0 c -47.03,0 -76.81,25.0703 -76.81,61.1289 0,33.3125 21.55,60.7421 83.47,60.7421 h 59.56 v 7.438 c 0,31.75 -18.42,50.16 -55.64,50.16 -24.69,0 -49.77,-8.617 -65.84,-22.328 l -15.68,28.218 c 21.56,17.231 52.51,26.641 85.82,26.641 56.83,0 88.96,-27.43 88.96,-84.25" /><path
             id="path54"
             style="fill:#ffffff;fill-opacity:1;fill-rule:nonzero;stroke:none"
             d="M 5112.42,210.051 V 2.35156 h -35.66 V 33.6992 C 5061.48,12.1484 5035.61,0 5006.23,0 c -53.68,0 -89.35,29.3906 -89.35,90.5117 V 210.051 h 37.62 V 94.8281 c 0,-40.75 20.38,-61.1289 56.03,-61.1289 39.19,0 64.27,24.2891 64.27,68.9608 v 107.391 h 37.62" /><path
             id="path56"
             style="fill:#ffffff;fill-opacity:1;fill-rule:nonzero;stroke:none"
             d="m 5334.93,212 v -36.449 c -3.13,0.39 -5.88,0.39 -8.63,0.39 -40.36,0 -65.43,-24.679 -65.43,-70.14 V 2.35156 h -37.62 V 210.051 h 36.05 V 175.16 c 13.32,24.301 39.19,36.84 75.63,36.84" /><path
             id="path58"
             style="fill:#ffffff;fill-opacity:1;fill-rule:nonzero;stroke:none"
             d="m 5546.88,65.8281 v 29 h -58 c -37.22,0 -47.8,-14.5 -47.8,-32.1289 0,-20.7695 17.24,-33.7109 45.84,-33.7109 28.21,0 50.56,12.9414 59.96,36.8398 z M 5584.5,127.75 V 2.35156 h -35.67 V 29.7813 C 5536.3,10.9688 5513.18,0 5480.66,0 c -47.03,0 -76.81,25.0703 -76.81,61.1289 0,33.3125 21.55,60.7421 83.46,60.7421 h 59.57 v 7.438 c 0,31.75 -18.42,50.16 -55.64,50.16 -24.69,0 -49.77,-8.617 -65.84,-22.328 l -15.68,28.218 c 21.56,17.231 52.51,26.641 85.82,26.641 56.82,0 88.96,-27.43 88.96,-84.25" /><path
             id="path60"
             style="fill:#ffffff;fill-opacity:1;fill-rule:nonzero;stroke:none"
             d="M 5890.48,121.871 V 2.35156 h -37.61 V 117.559 c 0,40.75 -20.38,60.742 -56.05,60.742 -39.96,0 -65.83,-23.91 -65.83,-68.973 V 2.35156 h -37.61 V 210.051 h 36.05 v -31.36 c 15.28,21.161 41.92,33.309 74.84,33.309 50.56,0 86.21,-29.012 86.21,-90.129" /><path
             id="path62"
             style="fill:#ffffff;fill-opacity:1;fill-rule:nonzero;stroke:none"
             d="M 6116.13,14.5 C 6104.76,4.69141 6087.53,0 6070.67,0 c -41.93,0 -65.84,23.1211 -65.84,65.0508 V 179.078 h -35.26 v 30.973 h 35.26 v 45.437 h 37.63 v -45.437 h 59.56 v -30.973 h -59.56 V 66.6211 c 0,-22.3516 11.75,-34.8828 32.52,-34.8828 10.97,0 21.56,3.5312 29.39,9.793 L 6116.13,14.5" /><path
             id="path64"
             style="fill:#ffffff;fill-opacity:1;fill-rule:nonzero;stroke:none"
             d="m 6174.47,24.2891 15.67,29.789 c 17.63,-12.5468 45.85,-21.5586 72.89,-21.5586 34.88,0 49.38,10.5821 49.38,28.2188 0,46.6327 -131.28,6.2734 -131.28,88.9527 0,37.231 33.31,62.309 86.6,62.309 27.04,0 57.61,-7.051 75.64,-18.809 L 6327.3,163.41 c -18.82,12.141 -39.58,16.449 -59.96,16.449 -32.91,0 -48.98,-12.148 -48.98,-28.597 0,-48.992 131.67,-9.024 131.67,-89.7425 C 6350.03,23.8984 6315.54,0 6260.29,0 c -34.48,0 -68.58,10.5781 -85.82,24.2891" /></g></g></g></g></svg>