<?xml version="1.0" encoding="UTF-8" standalone="no"?>
<svg
   xmlns:dc="http://purl.org/dc/elements/1.1/"
   xmlns:cc="http://creativecommons.org/ns#"
   xmlns:rdf="http://www.w3.org/1999/02/22-rdf-syntax-ns#"
   xmlns:svg="http://www.w3.org/2000/svg"
   xmlns="http://www.w3.org/2000/svg"
   viewBox="0 0 847.81335 295.94666"
   height="295.94666"
   width="847.81335"
   xml:space="preserve"
   id="svg2"
   version="1.1"><metadata
     id="metadata8"><rdf:RDF><cc:Work
         rdf:about=""><dc:format>image/svg+xml</dc:format><dc:type
           rdf:resource="http://purl.org/dc/dcmitype/StillImage" /></cc:Work></rdf:RDF></metadata><defs
     id="defs6"><clipPath
       id="clipPath20"
       clipPathUnits="userSpaceOnUse"><path
         id="path18"
         d="M 0,2219.61 V 0 h 6358.65 v 2219.61 z" /></clipPath></defs><g
     transform="matrix(1.3333333,0,0,-1.3333333,0,295.94667)"
     id="g10"><g
       transform="scale(0.1)"
       id="g12"><g
         id="g14"><g
           clip-path="url(#clipPath20)"
           id="g16"><path
             id="path22"
             style="fill:#ffffff;fill-opacity:1;fill-rule:nonzero;stroke:none"
             d="m 260.641,2219.61 c 0,-118.35 94.16,-210.29 234.476,-210.29 137.481,0 230.656,88.36 234.235,210.29 z m 45.91,-391.58 V 527.66 C 306.551,399.559 246.078,339.09 151.793,339.09 92.8047,339.09 40.2305,354.02 0,379.82 V 63.1484 C 58.3711,46.7383 125.137,39.3281 192.891,39.3281 c 314.199,0 490.675,191.0429 490.675,490.8009 V 1828.03 H 306.551" /><path
             id="path24"
             style="fill:#ffffff;fill-opacity:1;fill-rule:nonzero;stroke:none"
             d="m 1694.02,938.57 v 132.94 h -258.63 c -176.45,0 -232.04,-65.27 -232.04,-152.28 0,-94.269 79.76,-157.109 212.71,-157.109 125.68,0 234.45,58 277.96,176.449 z m 377.07,331.14 V 527.648 h -352.9 v 161.961 c -70.09,-118.449 -205.45,-181.3 -396.4,-181.3 -304.56,0 -485.845,169.211 -485.845,393.992 0,229.639 161.946,389.169 558.355,389.169 h 299.72 c 0,161.94 -96.68,256.21 -299.72,256.21 -137.78,0 -280.39,-45.92 -374.66,-120.86 L 884.285,1690.3 c 142.605,101.51 352.895,157.1 560.775,157.1 396.41,0 626.03,-183.7 626.03,-577.69" /><path
             id="path26"
             style="fill:#ffffff;fill-opacity:1;fill-rule:nonzero;stroke:none"
             d="m 3083.4,1847.4 v -348.06 c -31.43,2.42 -55.6,4.83 -84.6,4.83 -207.87,0 -345.64,-113.6 -345.64,-362.57 V 527.648 H 2276.08 V 1828.07 h 360.15 v -171.61 c 91.85,125.68 246.54,190.94 447.17,190.94" /><path
             id="path28"
             style="fill:#ffffff;fill-opacity:1;fill-rule:nonzero;stroke:none"
             d="M 4644.82,1828.07 4096.13,527.648 H 3706.98 L 3160.7,1828.07 h 389.16 l 360.16,-884.66 372.24,884.66 h 362.56" /><path
             id="path30"
             style="fill:#ffffff;fill-opacity:1;fill-rule:nonzero;stroke:none"
             d="m 4753.5,2219.61 c 0,-118.35 94.28,-210.29 234.47,-210.29 137.49,0 230.79,88.36 234.36,210.29 z m 45.91,-391.58 V 527.66 h 377.14 v 1300.37 h -377.14" /><path
             id="path32"
             style="fill:#ffffff;fill-opacity:1;fill-rule:nonzero;stroke:none"
             d="m 5981.14,1562.2 c 118.35,0 246.44,-24.18 374.55,-96.75 l 2.96,6.3 v 316.54 c -112.92,38.26 -250.16,59.11 -377.51,59.11 -379.61,0 -601.88,-174 -601.88,-420.58 0,-519.672 785.51,-302.1 785.51,-514.859 0,-72.441 -65.28,-118.481 -239.29,-118.481 -159.57,0 -336.04,50.848 -452.05,125.758 L 5347.8,648.48 c 120.82,-79.718 343.2,-140.191 563.11,-140.191 191.42,0 343.21,41.59 447.74,112.422 v 595.209 c -230.53,129.08 -619.27,68.98 -619.27,225.47 0,67.63 72.44,120.81 241.76,120.81" /></g></g></g></g></svg>